<svg xmlns="http://www.w3.org/2000/svg" width="164.031" height="71.499" viewBox="0 0 164.031 71.499"><defs><style>.a{fill:#0069c0;}.b{fill:#fff;}</style></defs><g transform="translate(-19 -20)"><path class="a" d="M783.972,529.392H767.9a.2.2,0,0,0-.2.2v50.87a4.7,4.7,0,0,1-4.7,4.7h0a4.7,4.7,0,0,1-4.7-4.7v-50.87a.2.2,0,0,0-.2-.2h-16.16A3.944,3.944,0,0,1,738,525.447v0a3.944,3.944,0,0,1,3.945-3.945h42.027a3.944,3.944,0,0,1,3.945,3.945v0A3.944,3.944,0,0,1,783.972,529.392Zm26.237,24.874a19.546,19.546,0,0,0,6.317-.931q.54-.176,1.061-.4a12.27,12.27,0,0,0,7.207-11.033c.006-.181.006-.364,0-.545a11.791,11.791,0,0,0-3.614-9.131q-3.614-3.324-10.971-3.324h-9.645a.2.2,0,0,0-.2.2V554.06a.2.2,0,0,0,.2.2Zm0-32.759a35.692,35.692,0,0,1,10.641,1.418,20.592,20.592,0,0,1,7.491,4.013,15.919,15.919,0,0,1,4.412,6.272,22.191,22.191,0,0,1,1.439,8.157,21.253,21.253,0,0,1-1.552,8.223,17.586,17.586,0,0,1-4.566,6.451,20.865,20.865,0,0,1-7.514,4.19,33.018,33.018,0,0,1-10.351,1.484h-9.641a.2.2,0,0,0-.2.2v18.526a4.72,4.72,0,0,1-4.72,4.72h0a4.72,4.72,0,0,1-4.72-4.72V526.255a4.753,4.753,0,0,1,4.755-4.753Zm12.108,58.465a5.81,5.81,0,0,1,.444-2.261,5.9,5.9,0,0,1,1.219-1.862,5.77,5.77,0,0,1,1.84-1.264,5.663,5.663,0,0,1,2.3-.464,5.6,5.6,0,0,1,2.261.464,5.99,5.99,0,0,1,3.127,3.127,5.6,5.6,0,0,1,.465,2.261,5.662,5.662,0,0,1-.465,2.3,6.025,6.025,0,0,1-1.264,1.862,5.689,5.689,0,0,1-1.863,1.233,5.812,5.812,0,0,1-2.261.444,5.905,5.905,0,0,1-2.3-.436,5.47,5.47,0,0,1-1.84-1.234,5.913,5.913,0,0,1-1.663-4.175Z" transform="translate(-651.162 -501.5)"/><g transform="translate(19 20)"><path class="b" d="M1091.976,706.369a2.669,2.669,0,0,1,.73,2.327l-1.817,11.088a2.673,2.673,0,0,1-2.189,2.189,2.4,2.4,0,0,1-.423,0,2.829,2.829,0,0,1-1.984-.81l-2.087-2.086-13.962,13.993a3.494,3.494,0,0,1-4.942.012l-.012-.012-7.084-7.084-14.956,14.932a3.5,3.5,0,0,1-4.954-4.954l17.414-17.405a3.5,3.5,0,0,1,4.942-.012l.012.012,7.084,7.084,11.512-11.512-2.109-2.095a2.718,2.718,0,0,1-.822-2.115,2.674,2.674,0,0,1,2.232-2.45l11.089-1.832a2.606,2.606,0,0,1,.438-.037,2.675,2.675,0,0,1,1.889.773Z" transform="translate(-1024.382 -670.446)"/><path class="a" d="M1045.055,745.088l2.627-2.6,2.53-2.531a3.166,3.166,0,0,0,.3-4.224,3.085,3.085,0,0,0-4.341-.417c-.072.062-.142.125-.21.191l-2.658,2.6a26.409,26.409,0,0,1-5.53-13.386h3.906a3.084,3.084,0,1,0,0-6.167h-3.869a26.407,26.407,0,0,1,5.493-13.378l2.631,2.627a3.083,3.083,0,0,0,4.361-.017,2.364,2.364,0,0,0,.191-.21,3.164,3.164,0,0,0-.3-4.216l-2.506-2.532a26.4,26.4,0,0,1,13.386-5.53v3.715a3.084,3.084,0,0,0,6.167,0v-3.715l1.028.138a26.36,26.36,0,0,1,14.518,7.536l.117.117a26.176,26.176,0,0,1,7.113,12.5l.037.16a3.326,3.326,0,0,0,3.748,2.576,3.4,3.4,0,0,0,2.709-3.972c-.01-.057-.022-.115-.037-.173a33.157,33.157,0,1,0-55.759,30.911,3.082,3.082,0,0,0,4.348,0Z" transform="translate(-1031 -688.5)"/><path class="a" d="M1066.182,697.663a2.919,2.919,0,0,0-3.918-.205l-10.359,8.295a7.29,7.29,0,1,0,6.186,6.186l8.3-10.3a2.918,2.918,0,0,0-.218-3.939Z" transform="translate(-1017.716 -679.737)"/></g></g></svg>