<svg xmlns="http://www.w3.org/2000/svg" width="460.663" height="335.146" viewBox="0 0 460.663 335.146"><defs><style>.a{fill:#e2e4ff;}.b{fill:#6c63ff;}.b,.d,.l{opacity:0.1;}.c{fill:#ced7e7;}.e{fill:#fed253;}.f{fill:#ffa2a2;}.g{opacity:0.05;}.h{fill:#87aeed;}.i{fill:#5c5116;opacity:0.172;}.j{fill:#63667e;}.k{fill:#896363;}.m{fill:#626262;}.n,.o{fill:#fff;}.n{opacity:0.699;}.o{opacity:0.748;}</style></defs><g transform="translate(0)"><path class="a" d="M516.718,368.873c-11.41,23.546-34.591,39.291-58.605,49.674a216.229,216.229,0,0,1-60.336,16.1q-5.971.709-11.981,1.1a232.38,232.38,0,0,1-30.746-.034q-9.236-.614-18.408-1.963a232.172,232.172,0,0,1-61.548-17.923q-8.48-3.819-16.617-8.338A212.582,212.582,0,0,1,232.5,390.5q-2.732-2.088-5.4-4.266l-.73-.6c-1.4-1.151-2.779-2.328-4.184-3.471a60.833,60.833,0,0,0-7.415-5.318c-.176-.1-.352-.206-.533-.3-.481-.279-.971-.541-1.469-.79a33.658,33.658,0,0,0-3.153-1.392A41.3,41.3,0,0,0,193.96,371.9c-.894,0-1.787.06-2.685.12h0c-1.254.086-2.513.215-3.768.378l-.464.064A85.4,85.4,0,0,0,175.216,375c-5.989,1.718-11.87,3.866-17.789,5.8h0c-2.513.829-5.031,1.62-7.569,2.328l-.558.155a82.848,82.848,0,0,1-11,2.3,61.3,61.3,0,0,1-25.178-2.028l-.284-.082-.524-.155-.717-.223q-1.8-.567-3.579-1.242l-.717-.275q-1.718-.662-3.364-1.422l-.717-.327q-1.718-.8-3.364-1.688c-.4-.206-.786-.43-1.173-.64q-1.753-.979-3.437-2.053-1.787-1.138-3.5-2.376-.79-.567-1.564-1.164a69.318,69.318,0,0,1-8.321-7.5c-.142-.142-.275-.288-.408-.43-.683-.739-1.353-1.491-2-2.26-.241-.284-.481-.567-.717-.859q-1.156-1.409-2.23-2.883c-.107-.142-.21-.288-.314-.43a62.116,62.116,0,0,1-7.247-13.1c-.06-.142-.116-.288-.168-.43q-.859-2.212-1.568-4.5c-.193-.636-.378-1.289-.541-1.925-.056-.189-.107-.382-.155-.571-2.371-9.335-2.642-19.04-2.642-28.688v-3.372c.069-15.607.309-31.481,2.612-46.873a1.958,1.958,0,0,1,.047-.318,146.39,146.39,0,0,1,3.14-15.388,113.514,113.514,0,0,1,5.288-15.594c5.3-12.458,13-23.8,21.553-34.3a193.374,193.374,0,0,1,35.283-33.938q2.835-2.075,5.748-4.03l.9-.589c.314-.21.627-.43.941-.614h0c.644-.43,1.289-.833,1.942-1.242l.73-.455,1.392-.859.43-.245.743-.43.735-.43q1.289-.76,2.608-1.486,5.632-3.14,11.53-5.739,1.74-.769,3.5-1.482a123.479,123.479,0,0,1,16.389-5.374q3.093-.782,6.225-1.375,3.695-.713,7.428-1.181a117.871,117.871,0,0,1,11.934-.889c28.061-.683,56.406,8.45,78.4,25.956,8.764,6.977,16.638,15.238,26.48,20.586,8.592,4.657,18.649,6.586,27.851,2.921,7.6-3.029,12.553-4.532,21.093-4.073a176.8,176.8,0,0,1,51.684,10.809c.67.245,1.34.5,2.006.752,43.264,16.561,80.463,49.446,99.786,91.705q.765,1.675,1.491,3.377C525.279,311.08,529.438,342.633,516.718,368.873Z" transform="translate(-63.857 -101.094)"/><path class="b" d="M149.827,313.711V476.6l-.558.155a82.852,82.852,0,0,1-11,2.3,61.3,61.3,0,0,1-25.178-2.028l-.284-.082-.524-.155-.717-.223q-1.8-.567-3.579-1.242l-.717-.275q-1.718-.662-3.364-1.422l-.717-.326q-1.718-.8-3.364-1.688c-.4-.206-.786-.43-1.173-.64q-1.753-.98-3.437-2.054-1.787-1.138-3.5-2.376-.79-.567-1.564-1.164a69.317,69.317,0,0,1-8.321-7.5c-.142-.142-.275-.288-.408-.43-.683-.739-1.353-1.491-2-2.26-.241-.284-.481-.567-.717-.859q-1.156-1.409-2.23-2.883c-.107-.142-.211-.288-.314-.43a62.114,62.114,0,0,1-7.247-13.1c-.06-.142-.116-.288-.168-.43q-.859-2.213-1.568-4.5c-.193-.636-.378-1.289-.541-1.925-.056-.189-.107-.382-.155-.571-2.371-9.335-2.642-19.04-2.642-28.688v-3.372c.069-15.607.309-31.481,2.612-46.873a1.957,1.957,0,0,1,.047-.318,146.4,146.4,0,0,1,3.14-15.388h43.87V313.711h8.747V295.93h18.825v17.781Z" transform="translate(-63.84 -194.546)"/><path class="b" d="M710.245,443.541c-11.41,23.546-34.591,39.291-58.605,49.674a216.228,216.228,0,0,1-60.336,16.1q-5.972.709-11.981,1.1a232.38,232.38,0,0,1-30.746-.034q-9.236-.614-18.408-1.963A232.173,232.173,0,0,1,468.62,490.5q-8.48-3.819-16.617-8.338a212.583,212.583,0,0,1-25.973-16.986q-2.732-2.088-5.4-4.266l-.73-.6c-1.4-1.151-2.779-2.328-4.184-3.471a60.84,60.84,0,0,0-7.415-5.318c-.176-.1-.352-.206-.533-.3-.481-.279-.971-.541-1.469-.79a33.635,33.635,0,0,0-3.153-1.392V382.4h79.728v14.834h34.99V288.724h41.185v43.389h20.371v-25.69h16.831V278.981h7.733V263c.67.245,1.34.5,2.006.752v15.229h7.526v27.46h16.819v25.69h24.8V430h39.42V358.825h12.7C718.807,385.748,722.965,417.3,710.245,443.541Z" transform="translate(-257.385 -175.762)"/><rect class="b" width="18.408" height="18.408" transform="translate(272.792 129.291)"/><rect class="b" width="18.408" height="18.408" transform="translate(272.792 167.447)"/><rect class="b" width="18.408" height="18.408" transform="translate(272.792 205.608)"/><rect class="b" width="18.408" height="18.408" transform="translate(272.792 243.769)"/><rect class="b" width="18.408" height="18.408" transform="translate(272.792 281.925)"/><path class="b" d="M717.248,805v14.537q-9.236-.614-18.408-1.963V805Z" transform="translate(-426.048 -484.923)"/><rect class="b" width="64.435" height="8.338" transform="translate(151.836 230.426)"/><rect class="b" width="64.435" height="8.338" transform="translate(151.836 255.75)"/><path class="b" d="M490.356,714.21v8.334H442.74q-2.732-2.088-5.4-4.266l-.73-.6c-1.4-1.151-2.78-2.328-4.184-3.471Z" transform="translate(-274.086 -433.135)"/><path class="b" d="M538.533,773.15v8.338h-5.026q-8.48-3.819-16.617-8.338Z" transform="translate(-322.263 -466.755)"/><rect class="b" width="11.981" height="11.981" transform="translate(321.946 179.136)"/><rect class="b" width="11.981" height="11.981" transform="translate(62.472 123.298)"/><rect class="b" width="11.981" height="11.981" transform="translate(62.472 151.135)"/><rect class="b" width="11.981" height="11.981" transform="translate(62.472 178.969)"/><rect class="b" width="11.981" height="11.981" transform="translate(62.472 206.806)"/><rect class="b" width="11.981" height="11.981" transform="translate(62.472 234.644)"/><rect class="b" width="11.981" height="11.981" transform="translate(62.472 262.477)"/><rect class="b" width="11.981" height="11.981" transform="translate(367.693 179.136)"/><rect class="b" width="11.981" height="11.981" transform="translate(321.946 208.692)"/><rect class="b" width="11.981" height="11.981" transform="translate(367.693 208.692)"/><rect class="b" width="11.981" height="11.981" transform="translate(321.946 238.253)"/><rect class="b" width="11.981" height="11.981" transform="translate(367.693 238.253)"/><rect class="b" width="11.981" height="11.981" transform="translate(321.946 267.813)"/><rect class="b" width="11.981" height="11.981" transform="translate(367.693 267.813)"/><rect class="b" width="11.981" height="11.981" transform="translate(321.946 297.369)"/><rect class="b" width="11.981" height="11.981" transform="translate(367.693 297.369)"/><path class="b" d="M749.43,768.738V761.01h11.981v6.629Z" transform="translate(-427.484 -434.085)"/><path class="b" d="M69.93,424.68v6.873h45.825V424.68Zm4.081,6.444H70.647V425.11h3.364Zm4.081,0H74.729V425.11h3.364Zm4.081,0H78.81V425.11h3.364Zm4.081,0H82.891V425.11h3.364Zm4.081,0H86.972V425.11h3.364Zm4.081,0H91.053V425.11h3.364Zm4.081,0H95.134V425.11H98.5Zm4.081,0H99.215V425.11h3.364Zm4.081,0H103.3V425.11h3.364Zm4.081,0h-3.364V425.11h3.364Zm4.3,0h-3.579V425.11h3.579Z" transform="translate(-67.314 -267.986)"/><path class="b" d="M69.93,471.14v6.852h45.825V471.14Zm4.081,6.422H70.647V471.57h3.364Zm4.081,0H74.729V471.57h3.364Zm4.081,0H78.81V471.57h3.364Zm4.081,0H82.891V471.57h3.364Zm4.081,0H86.972V471.57h3.364Zm4.081,0H91.053V471.57h3.364Zm4.081,0H95.134V471.57H98.5Zm4.081,0H99.215V471.57h3.364Zm4.081,0H103.3V471.57h3.364Zm4.081,0h-3.364V471.57h3.364Zm4.3,0h-3.579V471.57h3.579Z" transform="translate(-67.314 -294.487)"/><path class="b" d="M69.93,517.59v6.852h45.825V517.59Zm4.081,6.422H70.647V518.02h3.364Zm4.081,0H74.729V518.02h3.364Zm4.081,0H78.81V518.02h3.364Zm4.081,0H82.891V518.02h3.364Zm4.081,0H86.972V518.02h3.364Zm4.081,0H91.053V518.02h3.364Zm4.081,0H95.134V518.02H98.5Zm4.081,0H99.215V518.02h3.364Zm4.081,0H103.3V518.02h3.364Zm4.081,0h-3.364V518.02h3.364Zm4.3,0h-3.579V518.02h3.579Z" transform="translate(-67.314 -320.982)"/><path class="b" d="M69.93,564v6.874h45.825V564Zm4.081,6.444H70.647V564.43h3.364Zm4.081,0H74.729V564.43h3.364Zm4.081,0H78.81V564.43h3.364Zm4.081,0H82.891V564.43h3.364Zm4.081,0H86.972V564.43h3.364Zm4.081,0H91.053V564.43h3.364Zm4.081,0H95.134V564.43H98.5Zm4.081,0H99.215V564.43h3.364Zm4.081,0H103.3V564.43h3.364Zm4.081,0h-3.364V564.43h3.364Zm4.3,0h-3.579V564.43h3.579Z" transform="translate(-67.314 -347.455)"/><path class="b" d="M70.34,610.49c.163.644.348,1.289.541,1.924V610.92h3.364v6.014h-1.8c.052.142.107.288.168.43h43.389V610.49Zm7.986,6.444H74.962V610.92h3.364Zm4.081,0H79.044V610.92h3.364Zm4.081,0H83.125V610.92h3.364Zm4.081,0H87.206V610.92H90.57Zm4.081,0H91.287V610.92h3.364Zm4.081,0H95.368V610.92h3.364Zm4.081,0H99.449V610.92h3.364Zm4.081,0H103.53V610.92h3.364Zm4.081,0h-3.364V610.92h3.364Zm4.3,0h-3.578V610.92h3.579Z" transform="translate(-67.548 -373.973)"/><path class="b" d="M92.51,656.94c.1.142.206.288.314.43h2.23v2.883c.236.288.477.571.717.859v-3.737h3.364v6.014H97.773c.133.142.266.288.408.43h30.454v-6.874Zm10.705,6.444H99.852V657.37h3.364Zm4.081,0h-3.364V657.37H107.3Zm4.081,0h-3.364V657.37h3.364Zm4.081,0H112.1V657.37h3.364Zm4.081,0h-3.364V657.37h3.364Zm4.081,0h-3.364V657.37h3.364Zm4.3,0h-3.579V657.37h3.579Z" transform="translate(-80.194 -400.468)"/><path class="b" d="M144.87,703.39c.387.219.778.43,1.173.64v-.211h3.364v1.9l.717.326V703.82h3.364v3.647l.717.275V703.82h3.579v5.155l.717.223V703.39Z" transform="translate(-110.06 -426.964)"/><path class="b" d="M461.677,286.152s-10.242-.619-9.021,6.556a1.753,1.753,0,0,0,.911,1.847s0-.533,1.048-.352a4.788,4.788,0,0,0,1.113.051,2.315,2.315,0,0,0,1.362-.558h0s2.878-1.19,4-5.894c0,0,.825-1.027.795-1.289l-1.718.739a3.092,3.092,0,0,1,.129,2.281s-.056-2.234-.391-2.182c-.064,0-.9.43-.9.43s1.018,2.174.249,3.75c0,0,.292-2.672-.563-3.591l-1.246.717s1.19,2.242.382,4.073c0,0,.211-2.805-.636-3.9l-1.1.859s1.117,2.208.43,3.729c0,0-.09-3.269-.674-3.518a6.624,6.624,0,0,0-1.113,1.2s.765,1.6.292,2.449c0,0-.292-2.174-.533-2.187a7.239,7.239,0,0,0-1.057,2.432,5.232,5.232,0,0,1,.825-2.578,2.887,2.887,0,0,0-1.469.76s.15-1.018,1.718-1.108a6.7,6.7,0,0,1,1.01-1.16,6.33,6.33,0,0,0-2.492.288,2.8,2.8,0,0,1,2.775-.524l1.087-.889a8.954,8.954,0,0,0-2.9.03s.992-.859,3.2-.232l1.186-.709a10.818,10.818,0,0,0-2.775-.241,4.256,4.256,0,0,1,3.123.052l.859-.382s-1.289-.249-1.645-.288-.4-.142-.4-.142a4.416,4.416,0,0,1,2.393.266A10.818,10.818,0,0,0,461.677,286.152Z" transform="translate(-285.566 -188.961)"/><path class="b" d="M410.084,367.326s-3.5,9.64,3.725,10.521a1.748,1.748,0,0,0,2.023-.348s-.5-.168-.039-1.108a4.895,4.895,0,0,0,.369-1.048,2.324,2.324,0,0,0-.155-1.465h0s-.322-3.1-4.515-5.507c0,0-.748-1.087-1.01-1.13l.215,1.869a3.1,3.1,0,0,1,2.225.524s-2.148-.58-2.2-.245c0,.064.159.984.159.984s2.371-.361,3.664.825c0,0-2.483-1.04-3.6-.477l.335,1.366s2.487-.5,4.012.79c0,0-2.629-.992-3.918-.494l.511,1.289s2.436-.43,3.7.64c0,0-3.162-.859-3.561-.352a6.763,6.763,0,0,0,.833,1.4s1.757-.275,2.431.43c0,0-2.169-.339-2.247-.116a7.406,7.406,0,0,0,2.032,1.718,5.258,5.258,0,0,1-2.23-1.525,2.887,2.887,0,0,0,.314,1.628s-.936-.43-.58-1.955a6.576,6.576,0,0,1-.825-1.289,6.23,6.23,0,0,0-.43,2.47,2.8,2.8,0,0,1,.284-2.81l-.541-1.289a8.7,8.7,0,0,0-.8,2.8s-.533-1.2.687-3.136l-.339-1.336a10.711,10.711,0,0,0-1.018,2.578,4.244,4.244,0,0,1,.932-2.981l-.125-.919s-.6,1.151-.743,1.5-.249.335-.249.335a4.417,4.417,0,0,1,.932-2.221A10.851,10.851,0,0,0,410.084,367.326Z" transform="translate(-260.856 -235.221)"/><path class="b" d="M568.116,348.4s-3.5,9.657,3.725,10.516a1.753,1.753,0,0,0,2.028-.352s-.507-.168-.039-1.1a4.593,4.593,0,0,0,.365-1.052,2.324,2.324,0,0,0-.15-1.465h0s-.322-3.1-4.515-5.507c0,0-.752-1.083-1.014-1.126l.219,1.864a3.109,3.109,0,0,1,2.225.528s-2.148-.58-2.208-.249c0,.069.159.984.159.984s2.371-.357,3.669.825c0,0-2.483-1.035-3.609-.477l.339,1.37s2.487-.5,4.013.79c0,0-2.633-1-3.922-.5l.511,1.289s2.436-.43,3.7.64c0,0-3.157-.859-3.561-.348a6.631,6.631,0,0,0,.859,1.4s1.753-.279,2.431.43c0,0-2.169-.339-2.247-.112a7.438,7.438,0,0,0,2.028,1.718,5.212,5.212,0,0,1-2.225-1.525,2.909,2.909,0,0,0,.309,1.628s-.932-.43-.576-1.95a6.913,6.913,0,0,1-.829-1.289,6.332,6.332,0,0,0-.43,2.47,2.8,2.8,0,0,1,.284-2.81l-.541-1.289a8.7,8.7,0,0,0-.8,2.792s-.533-1.194.687-3.132l-.344-1.34a10.707,10.707,0,0,0-1.018,2.578,4.265,4.265,0,0,1,.936-2.981l-.124-.919s-.6,1.151-.748,1.5-.249.335-.249.335a4.446,4.446,0,0,1,.936-2.221A10.562,10.562,0,0,0,568.116,348.4Z" transform="translate(-350.999 -224.424)"/><path class="b" d="M342.214,531.892s-3.5,9.644,3.725,10.525a1.744,1.744,0,0,0,2.023-.352s-.5-.168-.039-1.1a4.624,4.624,0,0,0,.369-1.053,2.293,2.293,0,0,0-.155-1.465h0s-.322-3.1-4.515-5.5c0,0-.747-1.087-1.01-1.13l.215,1.864a3.106,3.106,0,0,1,2.225.528s-2.148-.58-2.2-.249c0,.069.159.984.159.984s2.371-.357,3.664.825c0,0-2.483-1.035-3.6-.477l.335,1.37s2.487-.5,4.012.79c0,0-2.629-1-3.918-.5l.511,1.289s2.436-.43,3.7.64c0,0-3.158-.859-3.561-.348a6.767,6.767,0,0,0,.833,1.4s1.757-.279,2.436.43c0,0-2.174-.339-2.251-.112a7.484,7.484,0,0,0,2.032,1.718,5.229,5.229,0,0,1-2.23-1.521,2.873,2.873,0,0,0,.314,1.624s-.936-.43-.58-1.95a6.921,6.921,0,0,1-.825-1.289,6.25,6.25,0,0,0-.43,2.47,2.8,2.8,0,0,1,.284-2.81l-.541-1.289a8.609,8.609,0,0,0-.795,2.792s-.533-1.194.687-3.132l-.344-1.336a10.629,10.629,0,0,0-1.018,2.578,4.241,4.241,0,0,1,.932-2.981l-.125-.924s-.6,1.151-.743,1.5-.249.335-.249.335a4.4,4.4,0,0,1,.937-2.221A10.953,10.953,0,0,0,342.214,531.892Z" transform="translate(-222.143 -329.093)"/><path class="b" d="M309.876,320.3s-3.5,9.64,3.725,10.521a1.757,1.757,0,0,0,2.028-.348s-.507-.168-.039-1.108a4.813,4.813,0,0,0,.365-1.053,2.311,2.311,0,0,0-.15-1.461h0s-.322-3.1-4.519-5.507c0,0-.747-1.087-1.01-1.13l.219,1.869a3.084,3.084,0,0,1,2.221.524s-2.148-.58-2.2-.245c0,.064.159.984.159.984s2.371-.361,3.669.825c0,0-2.483-1.04-3.609-.477l.335,1.366s2.487-.5,4.017.79c0,0-2.633-1-3.922-.494l.511,1.289s2.436-.43,3.7.644c0,0-3.158-.859-3.561-.352a6.761,6.761,0,0,0,.833,1.4s1.757-.275,2.436.43c0,0-2.169-.339-2.247-.116a7.363,7.363,0,0,0,2.028,1.718,5.284,5.284,0,0,1-2.23-1.525,2.886,2.886,0,0,0,.314,1.628s-.937-.43-.576-1.955a6.775,6.775,0,0,1-.829-1.289,6.314,6.314,0,0,0-.43,2.47,2.788,2.788,0,0,1,.284-2.81l-.546-1.289a8.608,8.608,0,0,0-.795,2.8s-.533-1.2.687-3.136l-.344-1.336a10.712,10.712,0,0,0-1.018,2.578,4.271,4.271,0,0,1,.932-2.981l-.12-.919s-.606,1.151-.747,1.495-.249.339-.249.339a4.4,4.4,0,0,1,.936-2.221A10.51,10.51,0,0,0,309.876,320.3Z" transform="translate(-203.698 -208.395)"/><path class="b" d="M371.44,442.185s2.7,9.881,9.112,6.444A1.749,1.749,0,0,0,382,447.177s-.507.155-.666-.881a4.726,4.726,0,0,0-.309-1.07,2.272,2.272,0,0,0-.967-1.108h0s-2.049-2.346-6.873-1.9c0,0-1.237-.451-1.478-.335l1.254,1.4a3.137,3.137,0,0,1,2.122-.859s-2.1.773-1.946,1.07c.034.06.7.713.7.713s1.718-1.663,3.471-1.443c0,0-2.625.584-3.218,1.693l1.061.924s1.744-1.843,3.737-1.671c0,0-2.728.7-3.493,1.856l1.168.769s1.718-1.766,3.394-1.607c0,0-3.067,1.13-3.115,1.766a6.7,6.7,0,0,0,1.495.666s1.289-1.237,2.23-1.061c0,0-1.972.975-1.9,1.2a7.645,7.645,0,0,0,2.642.223,5.242,5.242,0,0,1-2.7.043,2.861,2.861,0,0,0,1.194,1.147s-1.014.185-1.6-1.263a6.809,6.809,0,0,1-1.426-.58,6.35,6.35,0,0,0,1.074,2.268,2.8,2.8,0,0,1-1.388-2.462l-1.19-.743a9,9,0,0,0,.958,2.741s-1.126-.67-1.246-2.956l-1.048-.894a10.737,10.737,0,0,0,.662,2.706,4.307,4.307,0,0,1-.954-2.973l-.632-.683s.172,1.289.253,1.654,0,.43,0,.43a4.412,4.412,0,0,1-.516-2.354A10.732,10.732,0,0,0,371.44,442.185Z" transform="translate(-239.297 -277.788)"/><path class="b" d="M542.08,462.754s2.7,9.881,9.107,6.444a1.744,1.744,0,0,0,1.456-1.452s-.511.155-.67-.859a4.512,4.512,0,0,0-.3-1.07,2.3,2.3,0,0,0-.971-1.108h0s-2.049-2.346-6.874-1.895c0,0-1.237-.455-1.473-.339l1.25,1.4a3.137,3.137,0,0,1,2.122-.859s-2.1.773-1.942,1.07c.03.06.7.713.7.713s1.718-1.662,3.471-1.443c0,0-2.629.584-3.222,1.693l1.065.924s1.718-1.843,3.733-1.671c0,0-2.724.7-3.488,1.856l1.168.769s1.718-1.766,3.389-1.607c0,0-3.067,1.13-3.11,1.766a6.645,6.645,0,0,0,1.491.666s1.289-1.237,2.23-1.061c0,0-1.968.975-1.9,1.2a7.66,7.66,0,0,0,2.646.223,5.263,5.263,0,0,1-2.7.043,2.891,2.891,0,0,0,1.194,1.147s-1.014.185-1.6-1.263a6.694,6.694,0,0,1-1.422-.58,6.31,6.31,0,0,0,1.07,2.268,2.8,2.8,0,0,1-1.387-2.462l-1.19-.752a8.925,8.925,0,0,0,.962,2.741s-1.126-.67-1.246-2.956l-1.052-.894a10.6,10.6,0,0,0,.666,2.706,4.294,4.294,0,0,1-.958-2.973l-.632-.683s.172,1.289.253,1.654,0,.43,0,.43a4.412,4.412,0,0,1-.516-2.354A10.791,10.791,0,0,0,542.08,462.754Z" transform="translate(-336.631 -289.533)"/><path class="c" d="M455.21,639.1s22.287-7.505,17.673-34.1l-28.31-7.35L438,619.469Z" transform="translate(-277.263 -366.649)"/><path class="d" d="M438,629.229l17.205,19.628s22.287-7.505,17.673-34.1Z" transform="translate(-277.263 -376.408)"/><path class="e" d="M219.958,182.112s3.007,4.893,7.118,2.449.168-9.2.168-9.2S219.37,174.285,219.958,182.112Z" transform="translate(-152.873 -125.745)"/><path class="d" d="M227.076,184.564a4.24,4.24,0,0,1-3.312.558,6.677,6.677,0,0,1-3.291-2.3,7.176,7.176,0,0,1-.515-.7c-.211-2.792.657-4.455,1.86-5.434h0a7.574,7.574,0,0,1,4.932-1.357,2.237,2.237,0,0,1,.481.043l.082.137c.116.219.369.7.64,1.353C228.872,178.988,229.968,182.841,227.076,184.564Z" transform="translate(-152.873 -125.748)"/><path class="f" d="M466.219,611.85l15.465,1.25,28.783.236L487.789,641.26s-7.2.391-8.678,1.4-22.292.473-22.292.473l-3.359-14.314Z" transform="translate(-286.082 -374.749)"/><path class="g" d="M466.219,611.85l15.465,1.25,28.783.236L487.789,641.26s-7.2.391-8.678,1.4-22.292.473-22.292.473l-3.359-14.314Z" transform="translate(-286.082 -374.749)"/><path class="h" d="M425.982,436.286l3.6,6.1.782,10.637s2.5,9.069,4.382,11.728,2.659,9.7,2.659,9.7.782,6.568,1.718,7.973,2.191,11.6,2.191,11.6,8.291,16.578,15.8,18.61c0,0-37.224,12.2-17.674,34.1,0,0-13.919,3.437-17.205-.468s-11.887-61.78-11.887-61.78L413,435.68Z" transform="translate(-261.486 -274.26)"/><path class="i" d="M425.982,436.286l3.6,6.1.782,10.637s2.5,9.069,4.382,11.728,2.659,9.7,2.659,9.7.782,6.568,1.718,7.973,2.191,11.6,2.191,11.6,8.291,16.578,15.8,18.61c0,0-37.224,12.2-17.674,34.1,0,0-13.919,3.437-17.205-.468s-11.887-61.78-11.887-61.78L413,435.68Z" transform="translate(-261.486 -274.26)"/><path class="f" d="M281.249,263.2a33.509,33.509,0,0,0,.9,16.282l-5.791,16.578s-44.106-24.556-40.352-30.5c2.127-3.372,2.4-12.295,2.225-19.383-.125-5.387-.507-9.709-.507-9.709s54.129,5.323,46.925,17.678A29.167,29.167,0,0,0,281.249,263.2Z" transform="translate(-161.917 -160.629)"/><path class="d" d="M287.235,254.148a29.165,29.165,0,0,0-3.4,9.056,36.494,36.494,0,0,1-43.015-17.025c-.125-5.387-.507-9.709-.507-9.709S294.426,241.793,287.235,254.148Z" transform="translate(-164.5 -160.629)"/><path class="f" d="M303.724,167.344a36.447,36.447,0,1,1-66.183-21.05q.773-1.087,1.628-2.122a36.455,36.455,0,0,1,11.861-9.451h0a35.8,35.8,0,0,1,7.8-2.827,36.321,36.321,0,0,1,44.9,35.45Z" transform="translate(-159.092 -100.417)"/><path class="h" d="M227.324,401.472c-.546,2.913.137,8.235,1.173,13.652.043.236.09.473.137.709s.116.6.176.9c.477,2.328,1,4.635,1.5,6.732s.962,3.892,1.349,5.37c.584,2.212.984,3.6.984,3.6s.052,1.366.12,3.54c.039,1.254.082,2.784.125,4.472,0,.49.03.988.043,1.5.021.9.043,1.83.064,2.784,0,.309,0,.619.021.932,0,1.027.039,2.075.056,3.119.021,1.435.039,2.87.047,4.262V458.4a31.6,31.6,0,0,1-.464,6.568c-.1.249-.189.52-.275.8a27.163,27.163,0,0,0-.808,4.068l-.73-.6c-1.4-1.151-2.779-2.328-4.184-3.471a60.822,60.822,0,0,0-7.415-5.318c-.176-.1-.352-.206-.533-.305-.481-.279-.971-.541-1.469-.791a33.634,33.634,0,0,0-3.153-1.392,41.3,41.3,0,0,0-15.663-2.462c-2.148.82-3.544,1.409-3.544,1.409l-2.732.825-.455.137c-2.96.9-7.123,2.182-8.622,2.715-2.423.859-23.46,5.237-23.46,5.237a34.947,34.947,0,0,1-5.868,1.074,82.857,82.857,0,0,1-11,2.3,61.3,61.3,0,0,1-25.178-2.028,4.115,4.115,0,0,1-.73-.021,2.243,2.243,0,0,0,.43-.06l-.524-.155-.717-.223q-1.8-.567-3.578-1.242l-.717-.275q-1.718-.662-3.364-1.422l-.717-.327q-1.718-.8-3.364-1.688c-.4-.206-.786-.43-1.173-.64q-1.753-.979-3.437-2.053c-.189-1.62-.288-2.7-.288-2.7l-1.675-8.343-.086-.43-1.2-6.014-.086-.43-2.616-13.085-.086-.43-1.2-6.014-.086-.43L89.7,408.118l-.086-.43-1.2-6.014-.086-.43-2.629-13.1-.086-.43-1.2-5.993-.086-.43-.477-2.363-.717-3.579s-2.29-3.273-4.867-7.144l-.288-.43c-.735-1.087-1.491-2.217-2.225-3.325-.245-.365-.481-.726-.717-1.083q-.537-.812-1.04-1.585l-.232-.357-.047-.073c-3.7-5.731-1.224-8.222-1.224-8.222s1.555-2.105,3.561-4.889c.1-.142.2-.284.309-.43.859-1.2,1.8-2.517,2.732-3.832l.717-1.022c.271-.382.537-.765.795-1.143.1-.142.2-.288.3-.43a50.832,50.832,0,0,0,3.948-6.242c.524-1.4,3.866-5.525,7.2-9.146,2.625-2.861,5.237-5.4,6.41-6.014,2.659-1.4,3.755-5.946,3.755-5.946s5.787-2.028,6.568-3.591,11.732-8.592,11.732-8.592a57.876,57.876,0,0,0,6.221-4.571,3.664,3.664,0,0,0,.657-.769c.623-1.117,4.691-2.036,6.345-2.367.43-.086.7-.133.7-.133a14,14,0,0,1,2.5-3.286c.674-.6,1.516-2.655,2.225-4.648.769-2.174,1.366-4.266,1.366-4.266,1.254-4.223,3.755-2.973,3.755-2.973a8.592,8.592,0,0,0,.163,1.718h0c1.044,5.155,6.715,7.3,9.692,9.713,3.286,2.655,8.446,9.541,12.514,10.946,3.368,1.164,7.273,5.555,8.51,7.02l.094.112c.206.241.309.378.309.378s2.307-.12,3.712-.146h.511a1.5,1.5,0,0,0,.782-.318c1.4-.949,3.475-3.733,4.382-4.373,1.091-.786,2.191-13.455,2.191-13.455l.056-.026c3.9-1.826,8.076,16.449,8.076,16.449s7.35,2.191,7.978,3.755a5.618,5.618,0,0,0,1.508,1.525,82.656,82.656,0,0,0,12.072,7.668c.094.047.185.094.279.133a2.857,2.857,0,0,0,.262.125c.159.077.314.146.46.21q.348.155.644.258l.258.09a6.212,6.212,0,0,1,1.718.889c.155.112.309.228.46.352a12.136,12.136,0,0,1,1.607,1.615c.073.086.142.176.211.262h0a14.457,14.457,0,0,1,.859,1.186,17.554,17.554,0,0,1,1.078,1.8s6.41,10.95,8.446,12.2,3.286,13.923,3.286,13.923h0l-6.873,25.479s-.322,6.444-.924,13.017C228.257,395.024,227.831,398.774,227.324,401.472Z" transform="translate(-68.306 -184.699)"/><path class="j" d="M288.364,339.637s-4.61,2.5-8.209,2.736a6.763,6.763,0,0,1-1.409-.082c-3.772-.571-9.305-3.673-9.305-3.673l6.491-7.118,7.9,3.914,2.9,2.7Z" transform="translate(-181.116 -214.835)"/><path class="d" d="M303.265,161.517a4.318,4.318,0,0,1-.554.64c-2.26,2.148-6.272,1.259-9.352.76a34.057,34.057,0,0,1-7.789-2.251c-2.174-.928-4.781-2.062-6.736-.73-.752.507-1.267,1.319-2.049,1.766a5.643,5.643,0,0,1-2.7.49,39.452,39.452,0,0,1-8.948-.644c-4.378-1.022-8.906-3.6-13.068-1.9-3.256,1.323-5.022,4.867-5.9,8.274a14.97,14.97,0,0,1-1.718,4.854c-.971,1.418-2.848,2.423-4.446,1.757-2.358-.984-2.706-4.988-5.55-5.19-3.123-.219-3.084,3.007-2.174,5.34,1.349,3.437,3.115,6.873,3.192,10.456a36.468,36.468,0,0,1,2.079-38.852,3.927,3.927,0,0,0,1.551-1.813,2.722,2.722,0,0,0,.077-.309c.236-1.2-.43-2.457-.468-3.712-.15-3.063,3.166-5.2,6.208-5.585,2.023-.258,4.094-.06,6.122-.125h0a13.851,13.851,0,0,0,3.029-.4,14.567,14.567,0,0,0,4.726-2.427,36.515,36.515,0,0,1,44.45,29.612Z" transform="translate(-159.098 -100.429)"/><path class="k" d="M299.556,150.678a4.726,4.726,0,0,1-1.289,2.234c-2.26,2.148-6.272,1.254-9.352.756a33.634,33.634,0,0,1-7.789-2.234c-2.174-.924-4.781-2.058-6.736-.726-.752.507-1.267,1.319-2.049,1.766a5.59,5.59,0,0,1-2.7.485,38.259,38.259,0,0,1-8.948-.64c-4.378-1.027-8.906-3.6-13.068-1.9-3.256,1.323-5.022,4.872-5.9,8.278a14.911,14.911,0,0,1-1.718,4.85c-.971,1.413-2.848,2.427-4.446,1.761-2.358-.984-2.706-4.988-5.55-5.189-3.123-.219-3.085,3.007-2.174,5.34,1.6,4.068,3.772,8.115,3.059,12.428-.709,0-1.882-.026-2.578-.043.541-.924-.49-2.023-1.516-2.337s-2.225-.309-3.007-1.057a3.525,3.525,0,0,1-.7-2.938,20.221,20.221,0,0,1,1.6-6.418c.563-1.289,1.289-2.685.859-4.034a11.46,11.46,0,0,0-.928-1.757,6.711,6.711,0,0,1,.082-5.641c.327-.756.563-1.469.833-2.148A9.554,9.554,0,0,1,227,148.835c.984-1.224,1.946-3.067.859-4.206-.275-.288.275-.485.1-.859a.733.733,0,0,1-.064-.2,1.95,1.95,0,0,1,.309-1.289,3.151,3.151,0,0,1,.168-.288,2.448,2.448,0,0,1,.168-.284,13.657,13.657,0,0,1,3.716-4.051c.932-.674,2.023-1.323,2.393-2.414.43-1.289-.327-2.659-.391-4.021-.15-3.063,3.166-5.2,6.208-5.585s6.195.253,9.159-.533c4.206-1.108,7.161-4.82,10.98-6.9a15.547,15.547,0,0,1,13.661-.49c4.459,2.036,7.823,6.152,12.48,7.7,1.65.55,3.437.769,4.923,1.68a10.829,10.829,0,0,1,3.656,4.726c1.362,2.762,1.637,5.537,2.578,8.463a31.376,31.376,0,0,1,1.869,8.025,8.043,8.043,0,0,1-.211,2.376Z" transform="translate(-154.654 -92.12)"/><g class="l" transform="translate(68.522 38.324)"><path d="M234.862,181.577a1.912,1.912,0,0,0-.322-1.607c.112.335-.374.528-.107.808A1.718,1.718,0,0,1,234.862,181.577Z" transform="translate(-229.623 -166.726)"/><path d="M234.64,177.68h0a1.775,1.775,0,0,0-.09.464C234.632,178.007,234.743,177.865,234.64,177.68Z" transform="translate(-229.736 -165.419)"/><path d="M304.178,193.969c-2.264,2.148-6.272,1.259-9.361.756a33.406,33.406,0,0,1-7.78-2.247c-2.178-.928-4.781-2.062-6.74-.73-.747.507-1.263,1.319-2.049,1.766a5.6,5.6,0,0,1-2.7.485,39.264,39.264,0,0,1-8.953-.644c-4.373-1.022-8.9-3.587-13.064-1.9-3.256,1.327-5.022,4.872-5.9,8.278a14.871,14.871,0,0,1-1.718,4.854c-.975,1.418-2.853,2.423-4.446,1.761-2.358-.988-2.706-4.988-5.55-5.189-2.221-.159-2.84,1.431-2.689,3.2a2.259,2.259,0,0,1,2.689-2.26c2.844.2,3.192,4.206,5.55,5.189,1.594.666,3.475-.335,4.446-1.761a15.055,15.055,0,0,0,1.718-4.85c.881-3.407,2.646-6.955,5.9-8.278,4.163-1.693,8.691.859,13.064,1.9a38.048,38.048,0,0,0,8.953.64,5.437,5.437,0,0,0,2.7-.481c.8-.455,1.289-1.259,2.049-1.77,1.959-1.327,4.562-.193,6.74.73a33.623,33.623,0,0,0,7.78,2.251c3.089.5,7.1,1.4,9.361-.76a5.9,5.9,0,0,0,1.516-4.726A5.411,5.411,0,0,1,304.178,193.969Z" transform="translate(-228.967 -172.549)"/><path d="M249.443,149.14a4.571,4.571,0,0,0-.026.644c.043.894.382,1.787.49,2.659C250.066,151.374,249.572,150.257,249.443,149.14Z" transform="translate(-238.216 -149.14)"/><path d="M227.154,213.8a3.16,3.16,0,0,1,.082.391,3.085,3.085,0,0,0-.082-1.327,11.135,11.135,0,0,0-.928-1.761,5.305,5.305,0,0,1-.563-2.041,5.658,5.658,0,0,0,.563,2.981A10.918,10.918,0,0,1,227.154,213.8Z" transform="translate(-224.656 -183.319)"/><path d="M238.13,255.365l-2.513-.039a1.079,1.079,0,0,1-.077.937c.709,0,1.886.026,2.578.043a10.526,10.526,0,0,0,.125-2.225A10.072,10.072,0,0,1,238.13,255.365Z" transform="translate(-230.301 -208.998)"/><path d="M227.063,247.735c-1.027-.309-2.221-.314-2.986-1.065a2.724,2.724,0,0,1-.713-1.8,3.381,3.381,0,0,0,.713,2.741c.765.752,1.959.756,2.986,1.065a2.552,2.552,0,0,1,1.559,1.289C229.057,249.076,228.06,248.032,227.063,247.735Z" transform="translate(-223.345 -203.745)"/></g><path class="d" d="M357.352,514.118c-.481-.279-.971-.541-1.469-.791a33.635,33.635,0,0,0-3.153-1.392,41.3,41.3,0,0,0-15.663-2.462c-2.148.821-3.544,1.409-3.544,1.409l-2.732.825-.455.137c-.03-.3-.064-.6-.094-.906s-.064-.6-.1-.9c-.962-9.112-1.718-18.473-1.718-18.473v-9.026l-.052-23.821-.43-7.853-.2-3.475-.039-.662-.077-1.357-.043-.808a7.254,7.254,0,0,1-.241-.782h0c-.03-.107-.06-.228-.086-.352-.107-.43-.223-.984-.344-1.585-.786-3.952-1.77-10.615-1.83-11.968-.077-1.8-1.641-12.6-1.641-12.6-.159-5.941-5.155-17.128-6.414-19.237s-2.663-14.782-2.191-15.465a19.784,19.784,0,0,0,.5-4.519c0-.228.022-.451.03-.67.064-1.559.094-2.861.094-2.861l4.914-.971,1.319-.258.1-.021.043.086c.142.262.584,1.1,1.1,2.2.06.116.116.241.176.365.026.06.056.12.086.18.962,2.1,2.075,4.876,2.028,6.47-.077,2.818,3.132,9.623,3.132,9.623.309,1.564,7.114,17.124,7.114,17.124s5.555,15.251,5.241,17.755,2.659,19.083,2.659,19.083l3.05,17.051a100.774,100.774,0,0,1,3.437,11.1l.743,4.39.142.838,1.98,11.715.971,5.739s.408,3.05,1.027,6.444c.052.3.112.614.172.924a47.278,47.278,0,0,0,1.619,6.594A24.68,24.68,0,0,1,357.352,514.118Z" transform="translate(-206.956 -238.667)"/><path class="j" d="M358.514,514.412c-.176-.1-.352-.206-.533-.305-.481-.279-.971-.541-1.469-.79a33.66,33.66,0,0,0-3.153-1.392,41.3,41.3,0,0,0-15.663-2.462c-2.148.821-3.544,1.409-3.544,1.409l-2.732.825c-.034-.3-.064-.6-.1-.907s-.06-.55-.086-.825c-.962-9.09-1.718-18.408-1.718-18.408v-9.1l-.052-23.761-.43-7.5-.086-1.555-.06-1.052-.077-1.392-.077-1.413-.056-1.018v-.223a.083.083,0,0,0-.03-.073c-.082-.232-.18-.584-.288-1.031l-.052-.215c-.021-.1-.047-.206-.069-.314-.808-3.664-1.993-11.565-2.058-13.047-.077-1.8-1.641-12.6-1.641-12.6-.159-5.941-5.155-17.128-6.414-19.237s-2.659-14.782-2.191-15.465a24.985,24.985,0,0,0,.533-5.19v-.5c.056-1.327.077-2.363.077-2.363l4.571-.9,1.16-.228.18-.034.43-.086s.563,1.04,1.237,2.47l.086.18c.984,2.122,2.148,5.009,2.114,6.65-.077,2.818,3.132,9.623,3.132,9.623.309,1.564,7.114,17.124,7.114,17.124s5.555,15.251,5.241,17.755,2.659,19.083,2.659,19.083l3.05,17.05a100.785,100.785,0,0,1,3.437,11.1l.692,4.09.142.829,1.559,9.245,1.439,8.519s.43,3.037,1.022,6.444c.056.309.112.619.172.932a47.527,47.527,0,0,0,1.62,6.624,26.2,26.2,0,0,1,.911,3.432Z" transform="translate(-207.585 -238.655)"/><path class="e" d="M300.956,123.2s-1.641,2.114-3.123,2.114-7.252-.236-10.259-1.173-17.751-1.645-17.751-1.645-20.878.077-21.583-.627-12.982-4.459-14.232-4.223c-.262.052-.9.163-1.757.305l-.979.159c-1.482.236-3.334.511-5.026.713a15.7,15.7,0,0,1-4.515.155v-1.8s2.423-3.523,2.578-4.532S226.5,97,231.817,91.764A20.964,20.964,0,0,1,241.9,82.313c7.2-3.132,14.391-5.787,14.391-5.787l1.259-.18,4.06-.6a3.065,3.065,0,0,1,.4-.335c1.126-.859,4.536-2.728,8.983,1.289l.786,1.254s13.683,3.2,20.015,14.387,6.65,22.133,7.118,27.137c0,0-.314,1.409.314,1.955a8.781,8.781,0,0,1,.649.636c.056.056.112.112.163.172.18.18.348.369.485.524a.2.2,0,0,1,.043.043,1.378,1.378,0,0,0,.107.116Z" transform="translate(-153.901 -68.08)"/><path class="g" d="M314.554,174.757s-1.641,2.114-3.123,2.114-7.252-.236-10.259-1.173-17.751-1.645-17.751-1.645-20.878.077-21.583-.627-12.982-4.459-14.232-4.223c-.262.052-.9.163-1.757.305l-.223-1.375-.056-.339s23.7-5.082,39.493-2.419S312.514,171,312.514,171s-.314,1.409.314,1.955a8.768,8.768,0,0,1,.649.636c.056.056.112.112.163.172.18.18.348.369.485.524a.2.2,0,0,1,.043.043,1.417,1.417,0,0,0,.107.116Z" transform="translate(-167.5 -119.636)"/><path class="d" d="M297.8,184.1a61.871,61.871,0,0,1-10.675-.833c-.67-.1-1.327-.219-1.989-.365-2.53-.55-10.31-2.092-15.036-1.379-5.709.859-21.819-.7-21.819-.7s-9.932-2.032-13.923-3.673a13.843,13.843,0,0,0-6.349-.494,17.678,17.678,0,0,0-1.847.331c-3.325.786-6.13,2.578-5.645,5.632a7.175,7.175,0,0,1-.516-.7c-.21-2.792.657-4.455,1.86-5.434h0l.284-.116a34.687,34.687,0,0,1,4.476-.958c.236-.039.481-.073.73-.1,4.274-.576,10.456-.7,15.672,1.92,0,0,4.846,2.273,8.132,2.273s30.029.236,36.288,2.032a26.628,26.628,0,0,0,3.8.8,15.465,15.465,0,0,0,6.788-.64A8.041,8.041,0,0,1,297.8,184.1Z" transform="translate(-152.896 -125.547)"/><path class="d" d="M300.956,179.391s-1.641,2.114-3.123,2.114-7.252-.236-10.259-1.173-17.751-1.645-17.751-1.645-20.878.077-21.583-.627-12.982-4.459-14.232-4.223c-.262.052-.9.163-1.757.305l-.979.159a17.441,17.441,0,0,0-5.026.713,15.7,15.7,0,0,1-4.515.155v-.357a10.313,10.313,0,0,1,1.4-.679,37.994,37.994,0,0,1,8.893-1.383,24.853,24.853,0,0,1,11.99,2.242s4.846,2.273,8.132,2.273,30.029.232,36.288,2.032a27.2,27.2,0,0,0,3.8.8,15.809,15.809,0,0,0,8.287-1.19.2.2,0,0,1,.043.043,1.438,1.438,0,0,0,.107.116Z" transform="translate(-153.901 -124.269)"/><path class="e" d="M218.821,181.915s-5.241-3.991,1.564-6.65c0,0,11.887-3.673,20.883.859,0,0,4.846,2.264,8.132,2.264s30.029.236,36.288,2.036a27.064,27.064,0,0,0,3.8.8,16.183,16.183,0,0,0,9.653-1.834c.43-.236.816-.357.932-.219.391.473.082,3.209-3.359,3.755-2.685.43-8.785-.382-11.35-.756-.666-.1-1.327-.223-1.985-.365-2.53-.55-10.31-2.092-15.057-1.379-5.705.859-21.819-.7-21.819-.7s-9.928-2.032-13.919-3.677S217.335,175.815,218.821,181.915Z" transform="translate(-151.143 -124.916)"/><path class="d" d="M313.341,84.693c-.43-.619-5.95-5.039-8.2-6.826l4.06-.6a3.061,3.061,0,0,1,.4-.335A16.793,16.793,0,0,1,313.341,84.693Z" transform="translate(-201.479 -69.627)"/><path class="d" d="M216.33,89.536l-1.8,2.659,6.882-.232.155-2.973Z" transform="translate(-122.374 -50.76)"/><path class="d" d="M316.47,97.73l.782,2.423,4.382.7-1.877-2.9Z" transform="translate(-180.521 -55.746)"/><path class="d" d="M205.18,347c.468.782,15.873,21.05,19.942,20.487S205.18,347,205.18,347Z" transform="translate(-144.461 -223.676)"/><path class="d" d="M325.33,390.12s3.755,3.6,3.2,5S325.33,390.12,325.33,390.12Z" transform="translate(-212.996 -248.272)"/><path class="d" d="M227.2,447.65s-3.286,15.405-1.564,15.895S227.2,447.65,227.2,447.65Z" transform="translate(-155.845 -281.088)"/><path class="d" d="M328.24,586.91c.546,1.564,5.082,11.732,6.1,12.278S328.24,586.91,328.24,586.91Z" transform="translate(-214.655 -360.523)"/><path class="d" d="M446.515,489.7c-.159.546-4.068,3.755-3.209,4.927S446.515,489.7,446.515,489.7Z" transform="translate(-280.22 -305.073)"/><path class="d" d="M379.936,556.14c-.077.4-.859,8.592.627,10.168S379.936,556.14,379.936,556.14Z" transform="translate(-243.987 -342.971)"/><path class="d" d="M305.635,622.451c-1.134.631-2.307,1.241-3.5,1.826-1.289.627-2.578,1.224-3.892,1.787-.524.228-1.048.451-1.568.666q-1.186.49-2.346.941c-2.35.919-4.614,1.718-6.629,2.393-.782.262-1.529.5-2.225.726-3.505,1.113-5.834,1.718-5.834,1.718a6.319,6.319,0,0,0-1.62-.133h-.464a20.382,20.382,0,0,0-2.169.275,100.112,100.112,0,0,0-15.663,4.846c-2.148.821-3.544,1.409-3.544,1.409l-2.732.825-.455.138c-2.96.9-7.123,2.182-8.622,2.715-2.423.859-23.46,5.237-23.46,5.237a34.941,34.941,0,0,1-5.868,1.074,107.08,107.08,0,0,1-14.7.335c-4.923.318-12.888-.765-17.523-1.495l-.739-.116c-1.791-.292-2.93-.5-2.93-.5l.6-.829,12.334-17.016.073-.1,11.492-15.848.43-.576,1.044-1.439s.627-.859,3.042-.915h.932a25.183,25.183,0,0,1,5.958,1.216l.558.168c8.321,2.384,21.183,1.787,21.183,1.787s8-1.289,14.293-2.062l.468-.06a57.662,57.662,0,0,1,6.2-.537c3.832.077,12.123-1.955,12.123-1.955a8.079,8.079,0,0,0,3.54-1.422c.133-.095.275-.2.43-.309.43-.322.924-.717,1.559-1.207,1.16-.889,2.788-2.1,5.348-3.789.223-.146.46-.292.713-.43s.576-.322.885-.477a33.549,33.549,0,0,1,7.784-2.578,45.643,45.643,0,0,1,6.775-.932h.339c6.444-.344,13.025.76,16.874,4.382a10.564,10.564,0,0,1,1.744,2.148,9.8,9.8,0,0,1,.627,1.168,10.959,10.959,0,0,1,.778,2.406q.047.232.077.464v.138c0,.125.026.249.034.374C317.733,614.023,312.4,618.671,305.635,622.451Z" transform="translate(-129.614 -366.701)"/><path class="f" d="M179.15,644.919s13.919,2.578,21.192,2.109c0,0,13.373.7,20.569-1.4,0,0,21.05-4.382,23.46-5.241s11.81-3.677,11.81-3.677,18.3-7.664,23.46-6.414c0,0,40.511-10.478,37.615-24.633s-28.465-10.946-36.515-5.632-6.874,5.868-10.869,6.727c0,0-8.291,2.032-12.123,1.955s-20.96,2.659-20.96,2.659-13.451.627-21.737-1.955-9.932-.314-9.932-.314Z" transform="translate(-129.614 -365.43)"/><path class="d" d="M159.195,497.366a.21.21,0,0,1,0,.052,2.9,2.9,0,0,1-.245.924c-1.65,4.047-11.015,14.963-11.015,14.963a29.9,29.9,0,0,1-1.542,3.789,58.1,58.1,0,0,1-4.446,7.539,102.085,102.085,0,0,1-8.089,10.254h-.022a12.277,12.277,0,0,1-1.156.76,9.562,9.562,0,0,1-3.957,1.435,4.112,4.112,0,0,1-.73-.021,2.243,2.243,0,0,0,.43-.06l-.524-.155-.717-.223q-1.8-.567-3.579-1.242l-.717-.275q-1.718-.662-3.364-1.422l-.717-.327q-1.718-.8-3.364-1.688c-.4-.206-.786-.43-1.173-.64q-1.753-.98-3.437-2.053-1.787-1.138-3.5-2.376c-.859-1.594-1.568-3.007-1.955-3.768a10.479,10.479,0,0,1-.679-4.9,2.334,2.334,0,0,1,.026-.43c.073-.919.185-1.551.185-1.551a22.085,22.085,0,0,1-1.718-2.681,3.153,3.153,0,0,1-.481-1.542,1.83,1.83,0,0,0-.06-.653,15.239,15.239,0,0,0-3.067-5.155c-.979-1.078-1.04-5.108-.945-7.965.056-1.718.163-2.981.163-2.981a1,1,0,0,1-.408-.528,12.768,12.768,0,0,1-.7-2.913,3.037,3.037,0,0,0-.06-.43c-.275-1.972-.4-3.952-.4-3.952-3.179-2.316-4.691-5.928-5.4-9.15l-.09-.43a27.064,27.064,0,0,1-.49-6.014v-.537s.421-9.309,1.6-12.944c.047-.155.1-.3.15-.43a3.219,3.219,0,0,1,.335-.649,8,8,0,0,0,.988-2.926c.176-.885.322-1.869.43-2.848.1-.816.176-1.628.236-2.38.168-2.01.219-3.578.219-3.578l-.795-3.918c-.219-1.07-.387-2.148-.5-3.226a3.774,3.774,0,0,0-.052-.43,36.306,36.306,0,0,1-.107-5.993,2.378,2.378,0,0,1,.026-.43,36.322,36.322,0,0,1,3.505-13.1l.215-.43q.43-.859.9-1.688c.228-.408.468-.812.717-1.211a35.425,35.425,0,0,1,2.148-3.1c.112-.146.228-.288.344-.43a35,35,0,0,1,4.451-4.588c4.339-3.729,8.321-5.348,11.938-5.473,15.818-.559,24.689,27.417,26.124,32.318.137.473.206.73.206.73s6.41,6.414,4.532,9.228a4.841,4.841,0,0,0-.649,2.028c-.515,3.785.962,10.018.962,10.018s.524,1.718,2.053,5.834l.451,1.2c.958,2.578,1.181,6.9.632,10.779-.528,3.712-1.77,6.994-3.759,7.836-4.068,1.718-2.973,3.437-2.036,4.85a19.309,19.309,0,0,1,1.388,3.17c.589,1.585,1.134,3.252,1.34,3.9.06.18.09.279.09.279a8.49,8.49,0,0,1,1.766-.473c.769-.107,1.529-.03,1.675.627.077.352.52.769,1.143,1.186A33,33,0,0,0,159.195,497.366Z" transform="translate(-79.475 -254.616)"/><path class="h" d="M157.021,497.366h0a2.831,2.831,0,0,1-.245.945c-1.641,4.051-11.015,14.993-11.015,14.993a30.554,30.554,0,0,1-1.542,3.789,54.726,54.726,0,0,1-3.51,6.13,101.022,101.022,0,0,1-8.927,11.556l-.1.107s-.378.288-.979.657a11.168,11.168,0,0,1-3.5,1.469l-.524-.155-.717-.223q-1.8-.567-3.579-1.242l-.717-.275q-1.718-.661-3.364-1.422l-.717-.327q-1.718-.8-3.364-1.688c-.4-.206-.786-.43-1.173-.64q-1.753-.98-3.437-2.054-1.787-1.138-3.5-2.376-.79-.567-1.564-1.164c-.58-1.1-1.044-2.028-1.332-2.6a10.479,10.479,0,0,1-.679-4.9,2.333,2.333,0,0,1,.026-.43c.073-.919.185-1.551.185-1.551s-.348-.468-.769-1.1c-.236-.352-.49-.76-.717-1.164a3.986,3.986,0,0,1-.7-1.955.957.957,0,0,0,0-.223,2.082,2.082,0,0,0-.064-.43,15.258,15.258,0,0,0-3.072-5.155c-.979-1.078-1.04-5.108-.949-7.965v-.43c.06-1.482.15-2.552.15-2.552-.485-.21-.859-1.77-1.1-3.437l-.064-.43c-.275-1.972-.4-3.952-.4-3.952-3.179-2.315-4.691-5.928-5.391-9.15a26.231,26.231,0,0,1-.558-6.873v-.107s.369-9.357,1.547-13c.047-.155.1-.3.15-.43a3.218,3.218,0,0,1,.382-.627c.653-.911,1.087-3.1,1.37-5.344l.052-.43c.357-3.007.455-5.958.455-5.958l-.8-3.918q-.326-1.611-.5-3.226c-.021-.142-.034-.288-.052-.43a36.314,36.314,0,0,1-.107-5.993,2.045,2.045,0,0,1,.03-.43,36.235,36.235,0,0,1,3.505-13.1c.069-.146.137-.288.215-.43a33.664,33.664,0,0,1,1.839-3.248c.232-.365.468-.726.717-1.083.391-.567.8-1.125,1.224-1.667l.344-.43a35.042,35.042,0,0,1,4.412-4.575c4.726-4.051,9.021-5.615,12.888-5.473,15.229.546,23.778,27.515,25.183,32.318.137.473.206.73.206.73s6.414,6.414,4.536,9.228a4.841,4.841,0,0,0-.649,2.028c-.52,3.785.962,10.018.962,10.018s.524,1.718,2.053,5.834c.137.382.288.782.43,1.2.958,2.578,1.181,6.9.631,10.779-.528,3.716-1.766,6.994-3.759,7.836-4.064,1.718-2.973,3.437-2.032,4.85a19.307,19.307,0,0,1,1.388,3.17c.743,2.023,1.426,4.18,1.426,4.18a8.372,8.372,0,0,1,.859-.279,4.4,4.4,0,0,1,1.856-.193.821.821,0,0,1,.735.627c.116.516,1.005,1.156,2.084,1.761a39.764,39.764,0,0,0,4.326,2.028Z" transform="translate(-78.238 -254.615)"/><path class="d" d="M115.61,516.02c1.486-.077,17.442-6.255,20.728-4.146s23.628,15.8,23.628,15.8-12.746-16.655-23.851-20.565S115.61,516.02,115.61,516.02Z" transform="translate(-93.37 -314.579)"/><path class="d" d="M169,587.46s15.955,3.2,18.378,5.4Z" transform="translate(-123.824 -360.836)"/><path class="d" d="M154.445,643c-.232.236-6.014,13.214-5.55,13.214s5.4-7.733,5.4-7.733Z" transform="translate(-112.341 -392.517)"/><path class="d" d="M181.6,606.75s-4.691,1.645-4.146,1.8S181.438,607.455,181.6,606.75Z" transform="translate(-128.619 -371.84)"/><path class="d" d="M176.24,652.45c.782,1.641,3.282,6.569,3.832,5.787S176.24,652.45,176.24,652.45Z" transform="translate(-127.954 -397.907)"/><path class="d" d="M257.57,310.43l-.67.954s-5.323-3.75-7.509-5.628-7.35,6.723-11.419,9.069-10.946,2.973-10.946,2.973-5.318-5.318-5.155-6.874-2.5-2.032-2.659-3.127a15.557,15.557,0,0,0-2.346-5.787c-.662-.825-.756-3.407-.7-5.653.43-.086.7-.133.7-.133a14,14,0,0,1,2.5-3.286c1.409-1.25,3.6-8.914,3.6-8.914,1.25-4.223,3.75-2.973,3.75-2.973,0,6.414,6.573,8.759,9.855,11.419s8.446,9.541,12.514,10.95C252.423,304.558,256.328,308.961,257.57,310.43Z" transform="translate(-150.721 -185.96)"/><path class="h" d="M257.541,308.242l-.67.958s-5.344-3.742-7.531-5.632-7.35,6.723-11.419,9.069-10.946,2.977-10.946,2.977-5.318-5.323-5.155-6.873-2.5-2.032-2.659-3.132a15.53,15.53,0,0,0-2.346-5.787c-.662-.825-.756-3.407-.7-5.653l.7-.129a14,14,0,0,1,2.5-3.286c1.409-1.254,3.6-8.914,3.6-8.914,1.25-4.223,3.75-2.977,3.75-2.977,0,6.414,6.573,8.764,9.855,11.423s8.446,9.537,12.514,10.946C252.395,302.387,256.3,306.773,257.541,308.242Z" transform="translate(-150.693 -184.712)"/><path class="d" d="M300.719,349.219s-4.61,2.5-8.21,2.737a6.769,6.769,0,0,1-1.409-.082h0s3.974-2.969,7.664-3.574Z" transform="translate(-193.471 -224.418)"/><path class="d" d="M325.073,376.163s-5.812-2.264-7.733,1.143c.064-1.564.09-2.861.09-2.861l6.336-1.254s.61,1.13,1.323,2.651C325.073,376.042,325.073,376.163,325.073,376.163Z" transform="translate(-208.438 -238.615)"/><path class="j" d="M291.1,351.51s6.964-4.18,10.31-3.828c3.51.365,10.31.623,10.31.623s-2.346,5.318-2.032,6.414a54.964,54.964,0,0,1,.391,6.414s-7.037-2.736-8.21,2.346c0,0-3.832-5.709-6.414-7.432A17.56,17.56,0,0,1,291.1,351.51Z" transform="translate(-193.471 -224.053)"/><path class="d" d="M348.508,333.648c-2.032,0-9.228-4.541-10.791-7.509s-3.755.309-5.787,1.409c-1.289.7-6.4-.769-9.15-1.839,1.4-.949,4.489-3.621,5.4-4.262,1.091-.786,2.191-13.455,2.191-13.455,3.909-2.032,8.132,16.423,8.132,16.423s7.355,2.191,7.978,3.755a5.617,5.617,0,0,0,1.508,1.525C348.844,331.861,349.316,333.648,348.508,333.648Z" transform="translate(-211.541 -201.337)"/><path class="h" d="M349.855,331.475c-2.032,0-9.228-4.536-10.791-7.5s-3.755.309-5.787,1.4c-1.289.7-5.383-.657-8.137-1.718,1.4-.945,3.475-3.729,4.382-4.373,1.091-.782,2.191-13.451,2.191-13.451,3.909-2.032,8.132,16.423,8.132,16.423s7.355,2.191,7.978,3.755a5.618,5.618,0,0,0,1.508,1.525C350.19,329.688,350.662,331.475,349.855,331.475Z" transform="translate(-212.887 -200.105)"/><path class="m" d="M446.9,608.264l68.009-56.706a3.643,3.643,0,0,1,2.431-.859l25.372.666s1.757,1.289-.82,4.107L477.74,608.118a4.081,4.081,0,0,1-2.449.919l-27.743.919a.958.958,0,0,1-.644-1.693Z" transform="translate(-282.146 -339.867)"/><path class="f" d="M523.94,629.613S538.8,650.887,555.3,631.1s11.732-30.183,6.727-30.733S528.863,621.481,523.94,629.613Z" transform="translate(-326.284 -368.192)"/><path class="n" d="M757.17,83.416s19.147-37.16,41.778-18c0,0,4.94,1.8,4.567,7.024,0,0-1.9-1.044-3.415,2.947a19.281,19.281,0,0,1-2.148,4.008,9.45,9.45,0,0,1-4.768,3.6h0s-10.156,7.608-28.967,1.74c0,0-5.318.765-6.178.1l6.182-4.519s3.14,4.661,7.733,5.194c0,0-7.733-4.854-6.848-5.907.18-.215,3.385-2.247,3.385-2.247s5.495,8.081,12.617,8.678c0,0-9.979-4.549-11.41-9.451l5.013-2.8s5.387,8.828,13.476,9.816c0,0-10.267-5.116-12.338-10.353l5.305-2.071s5.426,8.506,12.157,9.284c0,0-11.264-7.11-10.912-9.679,0,0,4.988-1.607,6.517-1.4,0,0,4.034,6.014,7.986,6.122,0,0-7.024-5.55-6.56-6.405,0,0,7.054-.365,10.74,1.34,0,0-5.241-2.917-10.74-2.444a11.75,11.75,0,0,1,5.731-3.57s-3.888-1.6-7.441,3.677c0,0-5.486.5-6.165,1.113,0,0,2.775-5.7,6.191-8.132,0,0-5.091.9-7.612,8.631l-5.379,1.963s3.269-7.733,6.152-10.121c0,0-5.052,1.718-7.466,10.74L769.4,75s2.307-6.874,4.94-10.229c0,0-4.343,2.6-6.332,11.049l-3.093,2.178s1.774-4.992,2.414-6.379.318-1.675.318-1.675a17.987,17.987,0,0,0-4.051,8.923S757.527,83.759,757.17,83.416Z" transform="translate(-459.32 -59.93)"/><path class="o" d="M941.5,146.768s8.652-16.793,18.876-8.132a3.216,3.216,0,0,1,2.062,3.17s-.859-.468-1.542,1.336a8.591,8.591,0,0,1-.962,1.809,4.3,4.3,0,0,1-2.148,1.628h0s-4.592,3.437-13.094.786c0,0-2.4.344-2.788.047l2.792-2.045a5.693,5.693,0,0,0,3.5,2.346s-3.488-2.191-3.093-2.668c.077-.094,1.525-1.014,1.525-1.014s2.483,3.652,5.705,3.922c0,0-4.511-2.058-5.155-4.3l2.268-1.259s2.432,3.991,6.087,4.438c0,0-4.64-2.311-5.585-4.678l2.4-.937s2.449,3.845,5.49,4.2c0,0-5.091-3.213-4.927-4.373a12.418,12.418,0,0,1,2.943-.632s1.821,2.719,3.609,2.762c0,0-3.175-2.5-2.964-2.891a13.365,13.365,0,0,1,4.846.606,9.632,9.632,0,0,0-4.846-1.1,5.322,5.322,0,0,1,2.577-1.615s-1.757-.722-3.364,1.663a12.266,12.266,0,0,0-2.784.5,11.651,11.651,0,0,1,2.8-3.673s-2.3.4-3.437,3.9l-2.406.9s1.473-3.493,2.779-4.575c0,0-2.285.778-3.377,4.85l-2.234,1.211a19.661,19.661,0,0,1,2.23-4.622s-1.963,1.177-2.857,4.992l-1.4.984s.8-2.255,1.091-2.883.142-.756.142-.756a8.161,8.161,0,0,0-1.83,4.042S941.65,146.922,941.5,146.768Z" transform="translate(-564.463 -103.409)"/><path class="o" d="M723.27,192.248s8.652-16.793,18.9-8.132a3.223,3.223,0,0,1,2.062,3.175s-.859-.473-1.542,1.332a8.771,8.771,0,0,1-.962,1.809,4.3,4.3,0,0,1-2.17,1.628h0s-4.588,3.437-13.09.786c0,0-2.4.348-2.788.047l2.792-2.045a5.71,5.71,0,0,0,3.493,2.35s-3.488-2.2-3.093-2.672c.081-.095,1.529-1.014,1.529-1.014s2.483,3.652,5.7,3.922c0,0-4.506-2.058-5.155-4.3l2.268-1.254s2.436,3.987,6.092,4.433c0,0-4.64-2.311-5.585-4.678l2.4-.937s2.453,3.845,5.495,4.2c0,0-5.091-3.213-4.932-4.373a12.466,12.466,0,0,1,2.947-.632s1.821,2.719,3.609,2.767c0,0-3.175-2.509-2.964-2.9a13.372,13.372,0,0,1,4.846.606,9.656,9.656,0,0,0-4.85-1.1,5.322,5.322,0,0,1,2.578-1.615s-1.753-.722-3.359,1.663a12.264,12.264,0,0,0-2.784.5,11.578,11.578,0,0,1,2.8-3.673s-2.3.4-3.437,3.9l-2.436.9s1.478-3.493,2.779-4.571c0,0-2.281.773-3.372,4.846l-2.238,1.211a19.74,19.74,0,0,1,2.234-4.622s-1.963,1.177-2.861,4.992l-1.4.984s.8-2.255,1.091-2.883.146-.756.146-.756a8.12,8.12,0,0,0-1.83,4.042S723.42,192.4,723.27,192.248Z" transform="translate(-439.983 -129.351)"/></g></svg>