<svg xmlns="http://www.w3.org/2000/svg" width="73.412" height="32" viewBox="0 0 73.412 32"><defs><style>.a{fill:#fff;}.b{fill:#ffab40;}</style></defs><g transform="translate(-19 -20)"><path class="a" d="M758.575,525.032h-7.193a.089.089,0,0,0-.089.089v22.767a2.1,2.1,0,0,1-2.1,2.1h0a2.1,2.1,0,0,1-2.1-2.1V525.121a.089.089,0,0,0-.089-.089h-7.232A1.765,1.765,0,0,1,738,523.266h0a1.765,1.765,0,0,1,1.766-1.766h18.809a1.765,1.765,0,0,1,1.766,1.766h0A1.765,1.765,0,0,1,758.575,525.032Zm11.742,11.132a8.747,8.747,0,0,0,2.827-.417q.242-.079.475-.178a5.492,5.492,0,0,0,3.226-4.938c0-.081,0-.163,0-.244a5.277,5.277,0,0,0-1.617-4.087,7.047,7.047,0,0,0-4.91-1.488H766a.089.089,0,0,0-.089.089v11.169a.089.089,0,0,0,.089.089Zm0-14.662a15.972,15.972,0,0,1,4.762.635,9.217,9.217,0,0,1,3.353,1.8,7.125,7.125,0,0,1,1.974,2.807,9.932,9.932,0,0,1,.644,3.651,9.514,9.514,0,0,1-.695,3.68,7.872,7.872,0,0,1-2.043,2.887,9.336,9.336,0,0,1-3.363,1.875,14.775,14.775,0,0,1-4.632.664H766a.089.089,0,0,0-.089.089v8.291a2.112,2.112,0,0,1-2.112,2.112h0a2.112,2.112,0,0,1-2.112-2.112v-24.25a2.127,2.127,0,0,1,2.128-2.127Zm5.419,26.166a2.6,2.6,0,0,1,.2-1.012,2.643,2.643,0,0,1,.546-.834,2.582,2.582,0,0,1,.823-.566,2.534,2.534,0,0,1,1.031-.208,2.5,2.5,0,0,1,1.012.208,2.681,2.681,0,0,1,1.4,1.4,2.5,2.5,0,0,1,.208,1.012,2.534,2.534,0,0,1-.208,1.031,2.7,2.7,0,0,1-.566.834,2.545,2.545,0,0,1-.834.552,2.6,2.6,0,0,1-1.012.2,2.643,2.643,0,0,1-1.031-.2,2.447,2.447,0,0,1-.823-.552,2.646,2.646,0,0,1-.744-1.869Z" transform="translate(-688.639 -501.5)"/><g transform="translate(19 20)"><path class="b" d="M1061.753,705.945a1.194,1.194,0,0,1,.327,1.042l-.813,4.963a1.2,1.2,0,0,1-.98.98,1.079,1.079,0,0,1-.189,0,1.267,1.267,0,0,1-.888-.362l-.934-.934-6.249,6.263a1.564,1.564,0,0,1-2.212.005l-.005-.005-3.171-3.17-6.693,6.683a1.568,1.568,0,0,1-2.217-2.217l7.793-7.79a1.565,1.565,0,0,1,2.212-.006l.006.006,3.17,3.17,5.152-5.152-.944-.937a1.216,1.216,0,0,1-.368-.947,1.2,1.2,0,0,1,1-1.1l4.963-.82a1.165,1.165,0,0,1,.2-.017,1.2,1.2,0,0,1,.845.346Z" transform="translate(-1031.501 -689.868)"/><path class="a" d="M1037.29,713.826l1.176-1.162,1.132-1.133a1.417,1.417,0,0,0,.134-1.891,1.381,1.381,0,0,0-1.943-.187c-.032.028-.063.056-.094.086l-1.19,1.166a11.819,11.819,0,0,1-2.475-5.991h1.748a1.38,1.38,0,1,0,0-2.76h-1.731a11.819,11.819,0,0,1,2.458-5.987l1.178,1.176a1.379,1.379,0,0,0,1.952-.007,1.059,1.059,0,0,0,.085-.094,1.416,1.416,0,0,0-.134-1.887l-1.121-1.133a11.814,11.814,0,0,1,5.991-2.475v1.662a1.38,1.38,0,1,0,2.76,0v-1.662l.46.062a11.8,11.8,0,0,1,6.5,3.373l.052.052a11.715,11.715,0,0,1,3.183,5.593l.016.072a1.489,1.489,0,0,0,1.677,1.153,1.521,1.521,0,0,0,1.213-1.778c0-.026-.01-.052-.017-.077a14.839,14.839,0,1,0-24.955,13.834,1.379,1.379,0,0,0,1.946,0Z" transform="translate(-1031 -688.5)"/><path class="a" d="M1053.7,697.186a1.307,1.307,0,0,0-1.754-.092l-4.636,3.712a3.263,3.263,0,1,0,2.768,3.691,3.228,3.228,0,0,0,0-.923l3.716-4.61a1.306,1.306,0,0,0-.1-1.763Z" transform="translate(-1032.006 -689.164)"/></g></g></svg>