<svg xmlns="http://www.w3.org/2000/svg" width="18" height="18" viewBox="0 0 18 18"><defs><style>.a{fill:none;}.b{fill:#666;}</style></defs><path class="a" d="M0,0H18V18H0Z"/><path class="b" d="M14.138,9.686a4.885,4.885,0,0,0,0-1.372L15.6,7.159a.356.356,0,0,0,.083-.448L14.3,4.289a.345.345,0,0,0-.3-.175.32.32,0,0,0-.118.021l-1.722.7a5.038,5.038,0,0,0-1.169-.686l-.263-1.855A.339.339,0,0,0,10.382,2H7.616a.339.339,0,0,0-.339.294L7.014,4.149a5.3,5.3,0,0,0-1.169.686l-1.722-.7A.387.387,0,0,0,4,4.114a.342.342,0,0,0-.3.175L2.319,6.711a.348.348,0,0,0,.083.448L3.861,8.314A5.618,5.618,0,0,0,3.812,9a5.618,5.618,0,0,0,.048.686L2.4,10.841a.356.356,0,0,0-.083.448L3.7,13.711a.345.345,0,0,0,.3.175.32.32,0,0,0,.118-.021l1.722-.7a5.039,5.039,0,0,0,1.169.686l.263,1.855A.339.339,0,0,0,7.616,16h2.766a.339.339,0,0,0,.339-.294l.263-1.855a5.3,5.3,0,0,0,1.169-.686l1.722.7a.387.387,0,0,0,.124.021.342.342,0,0,0,.3-.175l1.383-2.422a.356.356,0,0,0-.083-.448Zm-1.369-1.2A3.785,3.785,0,0,1,12.8,9c0,.147-.014.3-.035.511l-.1.791.616.49.747.588-.484.847-.878-.357-.719-.294-.622.476a4.039,4.039,0,0,1-.864.511l-.733.3-.111.791-.138.945H8.515l-.131-.945-.111-.791-.733-.3a3.913,3.913,0,0,1-.851-.5l-.629-.49-.733.3-.878.357-.484-.847.747-.588.616-.49-.1-.791C5.209,9.3,5.2,9.14,5.2,9s.014-.3.035-.511l.1-.791-.616-.49L3.965,6.62l.484-.847.878.357.719.294.622-.476a4.039,4.039,0,0,1,.864-.511l.733-.3.111-.791L8.515,3.4h.961l.131.945.111.791.733.3a3.912,3.912,0,0,1,.851.5l.629.49.733-.3.878-.357.484.847-.74.6-.616.49.1.791ZM9,6.2A2.8,2.8,0,1,0,11.766,9,2.783,2.783,0,0,0,9,6.2Zm0,4.2A1.4,1.4,0,1,1,10.382,9,1.4,1.4,0,0,1,9,10.4Z"/></svg>